<?xml version="1.0" standalone="no"?><!DOCTYPE svg PUBLIC "-//W3C//DTD SVG 1.1//EN" "http://www.w3.org/Graphics/SVG/1.1/DTD/svg11.dtd"><svg t="1744001770144" class="icon" viewBox="0 0 1024 1024" version="1.1" xmlns="http://www.w3.org/2000/svg" p-id="5177" xmlns:xlink="http://www.w3.org/1999/xlink" width="200" height="200"><path d="M416.22763 644.432797H102.205915a65.425683 65.425683 0 0 1-65.425683-65.413703V107.980532a65.401722 65.401722 0 0 1 65.425683-65.425684h471.038563a65.425683 65.425683 0 0 1 65.413702 65.425684v314.021714h314.033696a65.425683 65.425683 0 0 1 65.413702 65.425684V958.442531a61.73568 61.73568 0 0 1-65.413702 65.413703H481.653313A65.425683 65.425683 0 0 1 416.22763 958.442531z" fill="#7D8592" p-id="5178"></path><path d="M475.111943 644.432797v320.575065h484.121303V480.886559H638.65818v98.132535a61.723699 61.723699 0 0 1-65.413702 65.413703zM363.896668 165.223512v60.513665h137.380756v189.723699h-40.889554v-13.08274h-96.491202v130.839386h-45.801573V402.378136h-98.132534v19.62411h-40.889555V232.278547h139.022089v-67.055035h45.801573z" fill="#FFFFFF" p-id="5179"></path><path d="M318.095095 356.576563v-85.037813h-98.132534v91.579183h98.132534v-6.54137zM462.017222 356.576563v-85.037813h-98.120554v91.579183h98.120554v-6.54137z" fill="#7D8592" p-id="5180"></path><path d="M780.411831 567.43392L910.029203 906.80644h-61.747661l-30.65818-85.864471H675.330588l-30.670161 86.259828h-61.73568L713.824036 567.43392z m24.536129 209.755148L749.765631 629.169599l-55.625609 148.019469z m0 0" fill="#7D8592" p-id="5181"></path></svg>